<?xml version="1.0" encoding="UTF-8"?><svg id="Layer_1" xmlns="http://www.w3.org/2000/svg" xmlns:xlink="http://www.w3.org/1999/xlink" viewBox="0 0 844.16 200.8"><defs><style>.cls-1{fill:url(#linear-gradient);}.cls-2{fill:none;isolation:isolate;}.cls-3{fill:#132824;}.cls-4{fill:url(#linear-gradient-3);}.cls-5{fill:url(#linear-gradient-4);}.cls-6{fill:url(#linear-gradient-2);}.cls-7{fill:url(#linear-gradient-6);}.cls-8{fill:url(#linear-gradient-5);}</style><linearGradient id="linear-gradient" x1="169.06" y1="87.91" x2="169.06" y2="177.13" gradientTransform="translate(0 202) scale(1 -1)" gradientUnits="userSpaceOnUse"><stop offset=".32" stop-color="#00adfe"/><stop offset=".49" stop-color="#00b6fe"/><stop offset=".98" stop-color="#00cfff"/></linearGradient><linearGradient id="linear-gradient-2" x1="157.35" y1="39.33" x2="157.35" y2="109.41" gradientTransform="translate(0 202) scale(1 -1)" gradientUnits="userSpaceOnUse"><stop offset="0" stop-color="#0499f5"/><stop offset=".47" stop-color="#26acf8"/><stop offset=".86" stop-color="#3fbafb"/></linearGradient><linearGradient id="linear-gradient-3" x1="187.88" y1="152.06" x2="112.74" y2="152.06" gradientTransform="translate(0 202) scale(1 -1)" gradientUnits="userSpaceOnUse"><stop offset="0" stop-color="#0053c8"/><stop offset=".42" stop-color="#0061cc"/><stop offset=".72" stop-color="#006fd0"/></linearGradient><linearGradient id="linear-gradient-4" x1="56.37" y1="138.49" x2="56.37" y2="67.45" gradientTransform="translate(0 202) scale(1 -1)" gradientUnits="userSpaceOnUse"><stop offset=".34" stop-color="#fb9b03"/><stop offset=".43" stop-color="#fa9502"/><stop offset=".73" stop-color="#fa8800"/><stop offset="1" stop-color="#fa8400"/></linearGradient><linearGradient id="linear-gradient-5" x1="68.09" y1="189.64" x2="68.09" y2="114.49" gradientTransform="translate(0 202) scale(1 -1)" gradientUnits="userSpaceOnUse"><stop offset="0" stop-color="#ffd914"/><stop offset="1" stop-color="#fdb609"/></linearGradient><linearGradient id="linear-gradient-6" x1="37.55" y1="76.92" x2="112.69" y2="76.92" gradientTransform="translate(0 202) scale(1 -1)" gradientUnits="userSpaceOnUse"><stop offset="0" stop-color="#ed3824"/><stop offset=".26" stop-color="#ef461c"/><stop offset=".75" stop-color="#f66d0a"/><stop offset="1" stop-color="#fa8400"/></linearGradient></defs><path class="cls-1" d="m112.74,35.79l13.53-13.53c13.2-13.2,34.81-13.2,48.01,0l41.25,41.25c13.2,13.2,13.2,34.81,0,48.01l-13.53,13.53-27.72,27.72c-13.2,13.2-34.81,13.2-48.01,0l-13.58-13.58,51.77-51.67"/><path class="cls-6" d="m202,125.05l-27.72,27.72c-13.2,13.2-34.81,13.2-48.01,0l-13.58-13.58,51.77-51.67"/><path class="cls-4" d="m112.74,35.79l13.53-13.53c13.2-13.2,34.81-13.2,48.01,0l3.7,3.7c13.2,13.2,13.2,34.81,0,48.01l-13.54,13.54"/><path class="cls-5" d="m112.69,139.23l-13.53,13.53c-13.2,13.2-34.81,13.2-48.01,0L9.9,111.52c-13.2-13.2-13.2-34.81,0-48.01l13.53-13.53,27.72-27.72c13.2-13.2,34.81-13.2,48.01,0l13.58,13.58-51.77,51.67"/><path class="cls-8" d="m23.43,49.98l27.72-27.72c13.2-13.2,34.81-13.2,48.01,0l13.58,13.58-51.77,51.67"/><path class="cls-7" d="m112.69,139.23l-13.53,13.53c-13.2,13.2-34.81,13.2-48.01,0l-3.7-3.7c-13.2-13.2-13.2-34.81,0-48.01l13.54-13.54"/><g class="cls-2"><g class="cls-2"><path class="cls-3" d="m332.84,137.33c5.09,0,9.65-.86,13.67-2.57,4.02-1.72,7.43-4.13,10.21-7.24,2.78-3.11,4.91-6.8,6.39-11.1,1.48-4.29,2.22-9.04,2.22-14.25V25.03h18.82v77.15c0,7.46-1.18,14.35-3.55,20.68-2.37,6.33-5.77,11.81-10.21,16.42s-9.82,8.23-16.16,10.83c-6.33,2.6-13.46,3.91-21.39,3.91s-15.06-1.3-21.4-3.91c-6.33-2.6-11.72-6.21-16.16-10.83-4.44-4.62-7.84-10.09-10.21-16.42-2.37-6.33-3.55-13.23-3.55-20.68V25.03h18.91v77.06c0,5.21.72,9.97,2.17,14.29,1.45,4.32,3.56,8.03,6.35,11.14,2.78,3.11,6.18,5.52,10.21,7.24,4.02,1.72,8.58,2.57,13.67,2.57Z"/></g><g class="cls-2"><path class="cls-3" d="m419.57,74.83c1.95-2.07,3.99-3.96,6.12-5.68,2.13-1.72,4.39-3.18,6.79-4.39,2.4-1.21,4.97-2.16,7.72-2.84,2.75-.68,5.7-1.02,8.83-1.02,4.97,0,9.33.83,13.09,2.49,3.76,1.66,6.91,3.98,9.45,6.97,2.54,2.99,4.47,6.58,5.77,10.79,1.3,4.2,1.95,8.85,1.95,13.94v57.44h-17.4v-57.44c0-6.45-1.48-11.47-4.44-15.05-2.96-3.58-7.49-5.37-13.58-5.37-4.44,0-8.6,1.05-12.47,3.15-3.88,2.1-7.47,4.96-10.79,8.57v66.14h-17.31V62.31h10.39c2.43,0,3.94,1.15,4.53,3.46l1.33,9.06Z"/><path class="cls-3" d="m518.73,34.44c0,1.6-.33,3.12-.98,4.57-.65,1.45-1.52,2.72-2.62,3.82s-2.38,1.95-3.86,2.57c-1.48.62-3.02.93-4.62.93s-3.11-.31-4.53-.93c-1.42-.62-2.68-1.48-3.77-2.57-1.1-1.09-1.95-2.37-2.57-3.82-.62-1.45-.93-2.97-.93-4.57s.31-3.21.93-4.66c.62-1.45,1.48-2.72,2.57-3.82s2.35-1.95,3.77-2.57c1.42-.62,2.93-.93,4.53-.93s3.14.31,4.62.93c1.48.62,2.77,1.48,3.86,2.57,1.09,1.1,1.97,2.37,2.62,3.82.65,1.45.98,3,.98,4.66Zm-3.28,27.88v90.2h-17.31V62.31h17.31Z"/></g><g class="cls-2"><path class="cls-3" d="m662.45,62.31l-29.03,90.2h-13.85c-1.66,0-2.78-1.09-3.37-3.29l-19-58.77c-.47-1.48-.89-2.94-1.24-4.39-.36-1.45-.68-2.91-.98-4.39-.53,3.08-1.27,6.07-2.22,8.97l-19.26,58.59c-.59,2.19-1.86,3.29-3.82,3.29h-13.14l-29.12-90.2h13.67c1.36,0,2.5.33,3.42.98.92.65,1.52,1.48,1.82,2.49l16.25,55.4c.53,2.25,1.01,4.44,1.42,6.57.41,2.13.8,4.26,1.15,6.39.53-2.13,1.11-4.26,1.73-6.39.62-2.13,1.26-4.32,1.91-6.57l18.02-55.75c.3-1.01.86-1.82,1.69-2.44.83-.62,1.83-.93,3.02-.93h7.55c1.3,0,2.38.31,3.24.93.86.62,1.43,1.44,1.73,2.44l17.58,55.75c.65,2.25,1.27,4.45,1.86,6.61.59,2.16,1.12,4.34,1.6,6.52.35-2.13.77-4.27,1.24-6.44.47-2.16,1.01-4.39,1.6-6.7l16.51-55.4c.3-1.01.9-1.83,1.82-2.49.92-.65,1.97-.98,3.15-.98h13.05Z"/></g><g class="cls-2"><path class="cls-3" d="m745.45,139.64c-2.13,2.49-4.59,4.63-7.37,6.44-2.78,1.81-5.74,3.27-8.88,4.39-3.14,1.12-6.38,1.95-9.72,2.49-3.34.53-6.64.8-9.9.8-6.21,0-11.97-1.05-17.27-3.15-5.3-2.1-9.88-5.18-13.76-9.23-3.88-4.05-6.9-9.08-9.05-15.09-2.16-6.01-3.24-12.92-3.24-20.73,0-6.27.98-12.12,2.93-17.53s4.75-10.13,8.39-14.16c3.64-4.02,8.09-7.19,13.36-9.5,5.27-2.31,11.19-3.46,17.75-3.46,5.5,0,10.58.9,15.22,2.71,4.65,1.81,8.66,4.42,12.03,7.86,3.37,3.43,6.02,7.67,7.95,12.7,1.92,5.03,2.89,10.77,2.89,17.22,0,2.66-.3,4.45-.89,5.37-.59.92-1.69,1.38-3.29,1.38h-59.12c.18,5.39.95,10.08,2.31,14.07,1.36,3.99,3.24,7.32,5.64,9.99,2.4,2.66,5.25,4.65,8.57,5.95,3.31,1.3,7.01,1.95,11.1,1.95,3.85,0,7.17-.44,9.99-1.33,2.81-.89,5.24-1.85,7.28-2.89,2.04-1.03,3.76-2,5.15-2.88s2.62-1.33,3.68-1.33c1.42,0,2.51.53,3.28,1.6l4.97,6.39Zm-14.29-42.26c0-3.43-.49-6.6-1.46-9.5-.98-2.9-2.41-5.42-4.31-7.55-1.89-2.13-4.2-3.79-6.92-4.97-2.72-1.18-5.86-1.78-9.41-1.78-7.28,0-13.01,2.1-17.18,6.3-4.17,4.2-6.82,10.03-7.95,17.49h47.23Z"/><path class="cls-3" d="m779.18,74.74c3.73-4.14,7.96-7.49,12.7-10.03,4.73-2.54,10.12-3.82,16.16-3.82,5.27,0,10.02,1.02,14.25,3.06,4.23,2.04,7.83,4.97,10.79,8.79,2.96,3.82,5.24,8.45,6.84,13.89,1.6,5.45,2.4,11.6,2.4,18.46,0,7.28-.9,13.91-2.71,19.89-1.81,5.98-4.38,11.1-7.72,15.36-3.34,4.26-7.41,7.56-12.21,9.9-4.79,2.34-10.18,3.51-16.16,3.51-2.9,0-5.56-.28-7.99-.84-2.43-.56-4.66-1.38-6.7-2.44-2.04-1.07-3.92-2.37-5.64-3.91-1.72-1.54-3.34-3.28-4.88-5.24l-.8,7.55c-.47,2.43-1.95,3.64-4.44,3.64h-11.19V21.48h17.31v53.27Zm0,55.57c2.84,3.73,5.92,6.33,9.23,7.81,3.31,1.48,6.92,2.22,10.83,2.22,8.05,0,14.25-2.87,18.6-8.61,4.35-5.74,6.53-14.41,6.53-26.01,0-10.71-1.92-18.57-5.77-23.57-3.85-5-9.29-7.5-16.33-7.5-4.97,0-9.28,1.12-12.92,3.37-3.64,2.25-7.03,5.45-10.17,9.59v42.7Z"/></g></g></svg>